<?xml version="1.0" standalone="no"?>
<!DOCTYPE svg PUBLIC "-//W3C//DTD SVG 20010904//EN"
 "http://www.w3.org/TR/2001/REC-SVG-20010904/DTD/svg10.dtd">
<svg version="1.0" xmlns="http://www.w3.org/2000/svg"
 width="799.000000pt" height="799.000000pt" viewBox="0 0 799.000000 799.000000"
 preserveAspectRatio="xMidYMid meet">
<metadata>
Created by potrace 1.14, written by Peter Selinger 2001-2017
</metadata>
<g transform="translate(0.000000,799.000000) scale(0.100000,-0.100000)"
fill="#000000" stroke="none">
<path d="M592 7975 c-212 -46 -390 -208 -470 -427 l-27 -73 -2 -3450 c-2
-3635 -4 -3490 40 -3613 60 -169 230 -328 412 -384 l70 -22 3380 0 3380 0 70
22 c162 50 311 176 383 324 22 46 46 108 53 138 19 83 20 6903 1 6999 -47 233
-250 436 -487 486 -102 21 -6705 21 -6803 0z"/>
</g>
</svg>
